<?xml version="1.0" encoding="iso-8859-1"?>
<!-- Generator: Adobe Illustrator 19.0.0, SVG Export Plug-In . SVG Version: 6.00 Build 0)  -->
<svg xmlns="http://www.w3.org/2000/svg" xmlns:xlink="http://www.w3.org/1999/xlink" version="1.1" id="Capa_1" x="0px" y="0px" viewBox="0 0 490 490" style="enable-background:new 0 0 490 490;" xml:space="preserve" width="512px" height="512px">
<g>
	<path d="M107.666,30.625v428.75c0,16.844,13.781,30.625,30.625,30.625h213.418c16.844,0,30.625-13.781,30.625-30.625V30.625   C382.334,13.781,368.553,0,351.709,0H138.291C121.447,0,107.666,13.781,107.666,30.625z M138.291,382.813V76.563h213.418v306.25   H138.291z M138.291,459.375v-45.938h213.418v45.938H138.291z M351.709,45.938H138.291V30.625h213.418V45.938z" fill="#2fa3b5"/>
	<circle cx="247.712" cy="436.483" r="17.865" fill="#2fa3b5"/>
	<ellipse cx="245" cy="194.106" rx="35.798" ry="36.394" fill="#2fa3b5"/>
	<path d="M245,239.513c-34.144,0-61.823,28.14-61.823,62.853h123.647C306.823,267.653,279.144,239.513,245,239.513z" fill="#2fa3b5"/>
</g>
<g>
</g>
<g>
</g>
<g>
</g>
<g>
</g>
<g>
</g>
<g>
</g>
<g>
</g>
<g>
</g>
<g>
</g>
<g>
</g>
<g>
</g>
<g>
</g>
<g>
</g>
<g>
</g>
<g>
</g>
</svg>
