<?xml version="1.0" encoding="iso-8859-1"?>
<!-- Generator: Adobe Illustrator 19.0.0, SVG Export Plug-In . SVG Version: 6.00 Build 0)  -->
<svg version="1.1" id="Layer_1" xmlns="http://www.w3.org/2000/svg" xmlns:xlink="http://www.w3.org/1999/xlink" x="0px" y="0px"
	 viewBox="0 0 512.002 512.002" style="enable-background:new 0 0 512.002 512.002;" xml:space="preserve">
<path style="fill:#003DA8;" d="M446.424,335.633c0-48.478-33.746-89.074-79.03-99.578L235.102,376.156l20.899,125.394L271.675,512
	h91.49l15.673-10.449L394.513,512h51.912V335.633z"/>
<path style="fill:#2F91ED;" d="M144.608,236.055c-45.284,10.504-79.03,51.1-79.03,99.578v176.366h51.912l15.674-10.449
	l15.674,10.449h91.489l15.674-10.449V354.023L144.608,236.055z"/>
<path style="fill:#FF8E00;" d="M344.204,233.414h-88.203l-20.899,53.824l20.899,94.501l111.392-145.682
	C359.943,234.328,352.18,233.414,344.204,233.414z"/>
<g>
	<path style="fill:#FFBA00;" d="M167.797,233.414c-7.976,0-15.739,0.914-23.189,2.643L256,381.738l0,0V233.414H167.797z"/>
	<polygon style="fill:#FFBA00;" points="271.675,241.355 256.001,241.355 245.552,381.737 256.001,512 271.675,512 	"/>
</g>
<rect x="240.328" y="241.351" style="fill:#FDE09C;" width="15.674" height="270.641"/>
<rect x="117.495" y="332.345" style="fill:#003DA8;" width="31.348" height="179.657"/>
<rect x="363.161" y="332.345" style="fill:#2F91ED;" width="31.348" height="179.657"/>
<rect x="102.719" y="15.674" style="fill:#003DA8;" width="31.348" height="121.726"/>
<path style="fill:#FF6E7A;" d="M235.102,76.812l20.899,178.666c52.871,0,95.732-42.861,95.732-95.732V97.711L235.102,76.812z"/>
<path style="fill:#FFABB2;" d="M160.269,97.711v62.035c0,52.871,42.861,95.732,95.732,95.732l0,0V76.812L160.269,97.711z"/>
<polygon style="fill:#003DA8;" points="351.733,15.674 256.001,15.674 235.102,56.692 256.001,97.711 351.733,97.711 "/>
<g>
	<rect x="160.264" y="15.674" style="fill:#2F91ED;" width="95.727" height="82.039"/>
	<polygon style="fill:#2F91ED;" points="427.66,0 256.001,0 235.102,15.674 256.001,31.348 427.66,31.348 	"/>
</g>
<rect x="84.339" style="fill:#63C1FF;" width="171.664" height="31.348"/>
<g>
</g>
<g>
</g>
<g>
</g>
<g>
</g>
<g>
</g>
<g>
</g>
<g>
</g>
<g>
</g>
<g>
</g>
<g>
</g>
<g>
</g>
<g>
</g>
<g>
</g>
<g>
</g>
<g>
</g>
</svg>
